<mxfile host="app.diagrams.net" modified="2024-02-20T17:58:59.345Z" agent="Mozilla/5.0 (X11; Linux x86_64; rv:109.0) Gecko/20100101 Firefox/114.0" etag="BqMhttIWKeYVctORFwPr" version="23.1.5" type="device">
  <diagram name="Page-1" id="2YBvvXClWsGukQMizWep">
    <mxGraphModel dx="1687" dy="935" grid="1" gridSize="10" guides="1" tooltips="1" connect="1" arrows="1" fold="1" page="1" pageScale="1" pageWidth="850" pageHeight="1100" math="0" shadow="0">
      <root>
        <mxCell id="0" />
        <mxCell id="1" parent="0" />
        <mxCell id="HU7i8c-x8OY4qaYbL8TO-18" value="Cliente" style="shape=umlActor;verticalLabelPosition=bottom;verticalAlign=top;html=1;outlineConnect=0;" vertex="1" parent="1">
          <mxGeometry x="90" y="40" width="20" height="40" as="geometry" />
        </mxCell>
        <mxCell id="HU7i8c-x8OY4qaYbL8TO-20" value="" style="rounded=1;whiteSpace=wrap;html=1;" vertex="1" parent="1">
          <mxGeometry x="90" y="130" width="20" height="60" as="geometry" />
        </mxCell>
        <mxCell id="HU7i8c-x8OY4qaYbL8TO-21" value="" style="endArrow=none;dashed=1;html=1;rounded=0;exitX=0.5;exitY=0;exitDx=0;exitDy=0;" edge="1" parent="1" source="HU7i8c-x8OY4qaYbL8TO-20">
          <mxGeometry width="50" height="50" relative="1" as="geometry">
            <mxPoint x="50" y="150" as="sourcePoint" />
            <mxPoint x="100" y="100" as="targetPoint" />
          </mxGeometry>
        </mxCell>
        <mxCell id="HU7i8c-x8OY4qaYbL8TO-22" value="" style="rounded=1;whiteSpace=wrap;html=1;" vertex="1" parent="1">
          <mxGeometry x="210" y="130" width="20" height="60" as="geometry" />
        </mxCell>
        <mxCell id="HU7i8c-x8OY4qaYbL8TO-23" value="" style="rounded=1;whiteSpace=wrap;html=1;" vertex="1" parent="1">
          <mxGeometry x="330" y="140" width="20" height="50" as="geometry" />
        </mxCell>
        <mxCell id="HU7i8c-x8OY4qaYbL8TO-24" value="" style="endArrow=classic;html=1;rounded=0;exitX=1;exitY=0;exitDx=0;exitDy=0;" edge="1" parent="1" source="HU7i8c-x8OY4qaYbL8TO-20">
          <mxGeometry width="50" height="50" relative="1" as="geometry">
            <mxPoint x="150" y="150" as="sourcePoint" />
            <mxPoint x="210" y="130" as="targetPoint" />
          </mxGeometry>
        </mxCell>
        <mxCell id="HU7i8c-x8OY4qaYbL8TO-25" value="" style="endArrow=classic;html=1;rounded=0;" edge="1" parent="1">
          <mxGeometry width="50" height="50" relative="1" as="geometry">
            <mxPoint x="230" y="140" as="sourcePoint" />
            <mxPoint x="330" y="140" as="targetPoint" />
          </mxGeometry>
        </mxCell>
        <mxCell id="HU7i8c-x8OY4qaYbL8TO-29" value="&lt;font style=&quot;font-size: 10px;&quot;&gt;Cajero&lt;/font&gt;" style="ellipse;whiteSpace=wrap;html=1;" vertex="1" parent="1">
          <mxGeometry x="200" y="40" width="40" height="40" as="geometry" />
        </mxCell>
        <mxCell id="HU7i8c-x8OY4qaYbL8TO-30" value="&lt;font style=&quot;font-size: 5px;&quot;&gt;Administrador&lt;/font&gt;" style="ellipse;whiteSpace=wrap;html=1;" vertex="1" parent="1">
          <mxGeometry x="320" y="40" width="40" height="40" as="geometry" />
        </mxCell>
        <mxCell id="HU7i8c-x8OY4qaYbL8TO-31" value="&lt;font style=&quot;font-size: 10px;&quot;&gt;Base de datos&lt;br&gt;&lt;/font&gt;" style="ellipse;whiteSpace=wrap;html=1;" vertex="1" parent="1">
          <mxGeometry x="440" y="40" width="40" height="40" as="geometry" />
        </mxCell>
        <mxCell id="HU7i8c-x8OY4qaYbL8TO-32" value="" style="rounded=1;whiteSpace=wrap;html=1;" vertex="1" parent="1">
          <mxGeometry x="330" y="210" width="20" height="20" as="geometry" />
        </mxCell>
        <mxCell id="HU7i8c-x8OY4qaYbL8TO-33" value="" style="endArrow=none;dashed=1;html=1;dashPattern=1 3;strokeWidth=2;rounded=0;startArrow=classic;startFill=1;exitX=1.06;exitY=-0.09;exitDx=0;exitDy=0;exitPerimeter=0;" edge="1" parent="1" source="HU7i8c-x8OY4qaYbL8TO-34">
          <mxGeometry width="50" height="50" relative="1" as="geometry">
            <mxPoint x="120" y="230" as="sourcePoint" />
            <mxPoint x="330" y="230" as="targetPoint" />
          </mxGeometry>
        </mxCell>
        <mxCell id="HU7i8c-x8OY4qaYbL8TO-34" value="" style="rounded=1;whiteSpace=wrap;html=1;" vertex="1" parent="1">
          <mxGeometry x="90" y="230" width="20" height="20" as="geometry" />
        </mxCell>
        <mxCell id="HU7i8c-x8OY4qaYbL8TO-35" value="" style="endArrow=none;dashed=1;html=1;rounded=0;exitX=0.5;exitY=0;exitDx=0;exitDy=0;" edge="1" parent="1">
          <mxGeometry width="50" height="50" relative="1" as="geometry">
            <mxPoint x="99.84" y="280" as="sourcePoint" />
            <mxPoint x="99.84" y="250" as="targetPoint" />
          </mxGeometry>
        </mxCell>
        <mxCell id="HU7i8c-x8OY4qaYbL8TO-38" value="" style="rounded=1;whiteSpace=wrap;html=1;" vertex="1" parent="1">
          <mxGeometry x="90" y="280" width="20" height="30" as="geometry" />
        </mxCell>
        <mxCell id="HU7i8c-x8OY4qaYbL8TO-39" value="" style="rounded=1;whiteSpace=wrap;html=1;" vertex="1" parent="1">
          <mxGeometry x="210" y="280" width="20" height="20" as="geometry" />
        </mxCell>
        <mxCell id="HU7i8c-x8OY4qaYbL8TO-41" value="" style="endArrow=none;dashed=1;html=1;rounded=0;exitX=0.5;exitY=0;exitDx=0;exitDy=0;" edge="1" parent="1" source="HU7i8c-x8OY4qaYbL8TO-39">
          <mxGeometry width="50" height="50" relative="1" as="geometry">
            <mxPoint x="219.84" y="220" as="sourcePoint" />
            <mxPoint x="219.84" y="190" as="targetPoint" />
          </mxGeometry>
        </mxCell>
        <mxCell id="HU7i8c-x8OY4qaYbL8TO-42" value="" style="endArrow=none;html=1;rounded=0;exitX=0.5;exitY=0;exitDx=0;exitDy=0;" edge="1" parent="1" source="HU7i8c-x8OY4qaYbL8TO-34">
          <mxGeometry width="50" height="50" relative="1" as="geometry">
            <mxPoint x="50" y="240" as="sourcePoint" />
            <mxPoint x="100" y="190" as="targetPoint" />
          </mxGeometry>
        </mxCell>
        <mxCell id="HU7i8c-x8OY4qaYbL8TO-43" value="" style="endArrow=none;dashed=1;html=1;rounded=0;exitX=0.5;exitY=0;exitDx=0;exitDy=0;" edge="1" parent="1" source="HU7i8c-x8OY4qaYbL8TO-22">
          <mxGeometry width="50" height="50" relative="1" as="geometry">
            <mxPoint x="219.84" y="120" as="sourcePoint" />
            <mxPoint x="219.84" y="90" as="targetPoint" />
          </mxGeometry>
        </mxCell>
        <mxCell id="HU7i8c-x8OY4qaYbL8TO-44" value="" style="endArrow=none;dashed=1;html=1;rounded=0;exitX=0.479;exitY=-0.043;exitDx=0;exitDy=0;exitPerimeter=0;" edge="1" parent="1" source="HU7i8c-x8OY4qaYbL8TO-23">
          <mxGeometry width="50" height="50" relative="1" as="geometry">
            <mxPoint x="340" y="130" as="sourcePoint" />
            <mxPoint x="339.84000000000003" y="90" as="targetPoint" />
          </mxGeometry>
        </mxCell>
        <mxCell id="HU7i8c-x8OY4qaYbL8TO-45" value="" style="endArrow=classic;html=1;rounded=0;entryX=1;entryY=0;entryDx=0;entryDy=0;" edge="1" parent="1" target="HU7i8c-x8OY4qaYbL8TO-38">
          <mxGeometry width="50" height="50" relative="1" as="geometry">
            <mxPoint x="210" y="280" as="sourcePoint" />
            <mxPoint x="260" y="230" as="targetPoint" />
          </mxGeometry>
        </mxCell>
        <mxCell id="HU7i8c-x8OY4qaYbL8TO-46" value="&lt;font style=&quot;font-size: 8px;&quot;&gt;Rechazar Tarjeta&lt;br&gt;&lt;/font&gt;" style="text;html=1;align=center;verticalAlign=middle;whiteSpace=wrap;rounded=0;" vertex="1" parent="1">
          <mxGeometry x="130" y="280" width="60" height="30" as="geometry" />
        </mxCell>
        <mxCell id="HU7i8c-x8OY4qaYbL8TO-48" value="&lt;font style=&quot;font-size: 8px;&quot;&gt;PIN InvÃ¡lido&lt;br&gt;&lt;/font&gt;" style="text;html=1;align=center;verticalAlign=middle;whiteSpace=wrap;rounded=0;" vertex="1" parent="1">
          <mxGeometry x="130" y="220" width="60" height="30" as="geometry" />
        </mxCell>
        <mxCell id="HU7i8c-x8OY4qaYbL8TO-49" value="" style="endArrow=none;dashed=1;html=1;rounded=0;exitX=0.5;exitY=0;exitDx=0;exitDy=0;" edge="1" parent="1">
          <mxGeometry width="50" height="50" relative="1" as="geometry">
            <mxPoint x="99.72" y="340" as="sourcePoint" />
            <mxPoint x="99.72" y="310" as="targetPoint" />
          </mxGeometry>
        </mxCell>
        <mxCell id="HU7i8c-x8OY4qaYbL8TO-50" value="" style="endArrow=none;dashed=1;html=1;rounded=0;" edge="1" parent="1">
          <mxGeometry width="50" height="50" relative="1" as="geometry">
            <mxPoint x="220" y="340" as="sourcePoint" />
            <mxPoint x="219.72" y="300" as="targetPoint" />
          </mxGeometry>
        </mxCell>
        <mxCell id="HU7i8c-x8OY4qaYbL8TO-51" value="" style="rounded=1;whiteSpace=wrap;html=1;" vertex="1" parent="1">
          <mxGeometry x="90" y="340" width="20" height="40" as="geometry" />
        </mxCell>
        <mxCell id="HU7i8c-x8OY4qaYbL8TO-52" value="" style="rounded=1;whiteSpace=wrap;html=1;" vertex="1" parent="1">
          <mxGeometry x="210" y="340" width="20" height="30" as="geometry" />
        </mxCell>
        <mxCell id="HU7i8c-x8OY4qaYbL8TO-53" value="" style="endArrow=none;dashed=1;html=1;dashPattern=1 3;strokeWidth=2;rounded=0;startArrow=classic;startFill=1;exitX=1.06;exitY=-0.09;exitDx=0;exitDy=0;exitPerimeter=0;" edge="1" parent="1">
          <mxGeometry width="50" height="50" relative="1" as="geometry">
            <mxPoint x="110" y="340" as="sourcePoint" />
            <mxPoint x="210" y="340" as="targetPoint" />
          </mxGeometry>
        </mxCell>
        <mxCell id="HU7i8c-x8OY4qaYbL8TO-54" value="&lt;font style=&quot;font-size: 8px;&quot;&gt;Solicitar cantidad&lt;br&gt;&lt;/font&gt;" style="text;html=1;align=center;verticalAlign=middle;whiteSpace=wrap;rounded=0;" vertex="1" parent="1">
          <mxGeometry x="120" y="330" width="80" height="30" as="geometry" />
        </mxCell>
        <mxCell id="HU7i8c-x8OY4qaYbL8TO-56" value="" style="rounded=1;whiteSpace=wrap;html=1;" vertex="1" parent="1">
          <mxGeometry x="90" y="410" width="20" height="60" as="geometry" />
        </mxCell>
        <mxCell id="HU7i8c-x8OY4qaYbL8TO-57" value="" style="endArrow=none;dashed=1;html=1;rounded=0;exitX=0.5;exitY=0;exitDx=0;exitDy=0;" edge="1" parent="1">
          <mxGeometry width="50" height="50" relative="1" as="geometry">
            <mxPoint x="99.72" y="410" as="sourcePoint" />
            <mxPoint x="99.72" y="380" as="targetPoint" />
          </mxGeometry>
        </mxCell>
        <mxCell id="HU7i8c-x8OY4qaYbL8TO-58" value="" style="endArrow=none;dashed=1;html=1;rounded=0;" edge="1" parent="1">
          <mxGeometry width="50" height="50" relative="1" as="geometry">
            <mxPoint x="220" y="410" as="sourcePoint" />
            <mxPoint x="219.72" y="370" as="targetPoint" />
          </mxGeometry>
        </mxCell>
        <mxCell id="HU7i8c-x8OY4qaYbL8TO-59" value="" style="rounded=1;whiteSpace=wrap;html=1;" vertex="1" parent="1">
          <mxGeometry x="210" y="410" width="20" height="50" as="geometry" />
        </mxCell>
        <mxCell id="HU7i8c-x8OY4qaYbL8TO-60" value="" style="endArrow=classic;html=1;rounded=0;" edge="1" parent="1">
          <mxGeometry width="50" height="50" relative="1" as="geometry">
            <mxPoint x="109.47" y="409.73" as="sourcePoint" />
            <mxPoint x="210" y="410" as="targetPoint" />
          </mxGeometry>
        </mxCell>
        <mxCell id="HU7i8c-x8OY4qaYbL8TO-61" value="&lt;font style=&quot;font-size: 8px;&quot;&gt;Introducir dinero&lt;br&gt;&lt;/font&gt;" style="text;html=1;align=center;verticalAlign=middle;whiteSpace=wrap;rounded=0;" vertex="1" parent="1">
          <mxGeometry x="115" y="400" width="90" height="30" as="geometry" />
        </mxCell>
        <mxCell id="HU7i8c-x8OY4qaYbL8TO-62" value="" style="rounded=1;whiteSpace=wrap;html=1;" vertex="1" parent="1">
          <mxGeometry x="90" y="500" width="20" height="60" as="geometry" />
        </mxCell>
        <mxCell id="HU7i8c-x8OY4qaYbL8TO-63" value="" style="endArrow=none;dashed=1;html=1;rounded=0;exitX=0.5;exitY=0;exitDx=0;exitDy=0;" edge="1" parent="1">
          <mxGeometry width="50" height="50" relative="1" as="geometry">
            <mxPoint x="99.72" y="500" as="sourcePoint" />
            <mxPoint x="99.72" y="470" as="targetPoint" />
          </mxGeometry>
        </mxCell>
        <mxCell id="HU7i8c-x8OY4qaYbL8TO-64" value="" style="endArrow=none;dashed=1;html=1;rounded=0;" edge="1" parent="1">
          <mxGeometry width="50" height="50" relative="1" as="geometry">
            <mxPoint x="220" y="500" as="sourcePoint" />
            <mxPoint x="219.72" y="460" as="targetPoint" />
          </mxGeometry>
        </mxCell>
        <mxCell id="HU7i8c-x8OY4qaYbL8TO-65" value="" style="rounded=1;whiteSpace=wrap;html=1;" vertex="1" parent="1">
          <mxGeometry x="210" y="500" width="20" height="50" as="geometry" />
        </mxCell>
        <mxCell id="HU7i8c-x8OY4qaYbL8TO-66" value="" style="endArrow=classic;html=1;rounded=0;" edge="1" parent="1">
          <mxGeometry width="50" height="50" relative="1" as="geometry">
            <mxPoint x="109.47" y="499.73" as="sourcePoint" />
            <mxPoint x="210" y="500" as="targetPoint" />
          </mxGeometry>
        </mxCell>
        <mxCell id="HU7i8c-x8OY4qaYbL8TO-67" value="&lt;font style=&quot;font-size: 8px;&quot;&gt;Sacar dinero&lt;br&gt;&lt;/font&gt;" style="text;html=1;align=center;verticalAlign=middle;whiteSpace=wrap;rounded=0;" vertex="1" parent="1">
          <mxGeometry x="115" y="490" width="90" height="30" as="geometry" />
        </mxCell>
        <mxCell id="HU7i8c-x8OY4qaYbL8TO-68" value="" style="rounded=1;whiteSpace=wrap;html=1;" vertex="1" parent="1">
          <mxGeometry x="90" y="660" width="20" height="20" as="geometry" />
        </mxCell>
        <mxCell id="HU7i8c-x8OY4qaYbL8TO-69" value="" style="rounded=1;whiteSpace=wrap;html=1;" vertex="1" parent="1">
          <mxGeometry x="210" y="660" width="20" height="20" as="geometry" />
        </mxCell>
        <mxCell id="HU7i8c-x8OY4qaYbL8TO-70" value="" style="rounded=1;whiteSpace=wrap;html=1;" vertex="1" parent="1">
          <mxGeometry x="210" y="630" width="20" height="20" as="geometry" />
        </mxCell>
        <mxCell id="HU7i8c-x8OY4qaYbL8TO-71" value="" style="endArrow=classic;html=1;rounded=0;entryX=1;entryY=0;entryDx=0;entryDy=0;" edge="1" parent="1" target="HU7i8c-x8OY4qaYbL8TO-68">
          <mxGeometry width="50" height="50" relative="1" as="geometry">
            <mxPoint x="210" y="660" as="sourcePoint" />
            <mxPoint x="135.53" y="660" as="targetPoint" />
          </mxGeometry>
        </mxCell>
        <mxCell id="HU7i8c-x8OY4qaYbL8TO-72" value="&lt;font style=&quot;font-size: 8px;&quot;&gt;Terminar transacciÃ³n&lt;br&gt;&lt;/font&gt;" style="text;html=1;align=center;verticalAlign=middle;whiteSpace=wrap;rounded=0;" vertex="1" parent="1">
          <mxGeometry x="120" y="650" width="90" height="30" as="geometry" />
        </mxCell>
        <mxCell id="HU7i8c-x8OY4qaYbL8TO-73" value="" style="endArrow=none;dashed=1;html=1;rounded=0;exitX=0.5;exitY=0;exitDx=0;exitDy=0;" edge="1" parent="1" source="HU7i8c-x8OY4qaYbL8TO-68">
          <mxGeometry width="50" height="50" relative="1" as="geometry">
            <mxPoint x="99.81" y="590" as="sourcePoint" />
            <mxPoint x="99.81" y="560" as="targetPoint" />
          </mxGeometry>
        </mxCell>
        <mxCell id="HU7i8c-x8OY4qaYbL8TO-74" value="" style="endArrow=none;dashed=1;html=1;rounded=0;" edge="1" parent="1">
          <mxGeometry width="50" height="50" relative="1" as="geometry">
            <mxPoint x="220" y="630" as="sourcePoint" />
            <mxPoint x="219.81" y="550" as="targetPoint" />
          </mxGeometry>
        </mxCell>
        <mxCell id="HU7i8c-x8OY4qaYbL8TO-75" value="" style="endArrow=none;html=1;rounded=0;" edge="1" parent="1">
          <mxGeometry width="50" height="50" relative="1" as="geometry">
            <mxPoint x="219.81" y="660" as="sourcePoint" />
            <mxPoint x="219.81" y="650" as="targetPoint" />
          </mxGeometry>
        </mxCell>
        <mxCell id="HU7i8c-x8OY4qaYbL8TO-76" value="" style="endArrow=none;dashed=1;html=1;rounded=0;" edge="1" parent="1">
          <mxGeometry width="50" height="50" relative="1" as="geometry">
            <mxPoint x="100" y="760" as="sourcePoint" />
            <mxPoint x="99.77000000000001" y="680" as="targetPoint" />
          </mxGeometry>
        </mxCell>
        <mxCell id="HU7i8c-x8OY4qaYbL8TO-77" value="" style="endArrow=none;dashed=1;html=1;rounded=0;" edge="1" parent="1">
          <mxGeometry width="50" height="50" relative="1" as="geometry">
            <mxPoint x="220" y="760" as="sourcePoint" />
            <mxPoint x="219.77" y="680" as="targetPoint" />
          </mxGeometry>
        </mxCell>
        <mxCell id="HU7i8c-x8OY4qaYbL8TO-78" value="" style="rounded=1;whiteSpace=wrap;html=1;" vertex="1" parent="1">
          <mxGeometry x="330" y="410" width="20" height="80" as="geometry" />
        </mxCell>
        <mxCell id="HU7i8c-x8OY4qaYbL8TO-79" value="" style="endArrow=none;dashed=1;html=1;rounded=0;" edge="1" parent="1" source="HU7i8c-x8OY4qaYbL8TO-78">
          <mxGeometry width="50" height="50" relative="1" as="geometry">
            <mxPoint x="339.78999999999996" y="330" as="sourcePoint" />
            <mxPoint x="339.6" y="230" as="targetPoint" />
          </mxGeometry>
        </mxCell>
        <mxCell id="HU7i8c-x8OY4qaYbL8TO-80" value="" style="endArrow=none;dashed=1;html=1;rounded=0;exitX=0.5;exitY=0;exitDx=0;exitDy=0;" edge="1" parent="1">
          <mxGeometry width="50" height="50" relative="1" as="geometry">
            <mxPoint x="109.84" y="290" as="sourcePoint" />
            <mxPoint x="109.84" y="260" as="targetPoint" />
          </mxGeometry>
        </mxCell>
        <mxCell id="HU7i8c-x8OY4qaYbL8TO-81" value="" style="rounded=1;whiteSpace=wrap;html=1;" vertex="1" parent="1">
          <mxGeometry x="330" y="525" width="20" height="55" as="geometry" />
        </mxCell>
        <mxCell id="HU7i8c-x8OY4qaYbL8TO-82" value="" style="endArrow=none;dashed=1;html=1;rounded=0;exitX=0.5;exitY=0;exitDx=0;exitDy=0;" edge="1" parent="1" source="HU7i8c-x8OY4qaYbL8TO-81">
          <mxGeometry width="50" height="50" relative="1" as="geometry">
            <mxPoint x="340" y="520" as="sourcePoint" />
            <mxPoint x="339.67" y="490" as="targetPoint" />
          </mxGeometry>
        </mxCell>
        <mxCell id="HU7i8c-x8OY4qaYbL8TO-83" value="" style="endArrow=none;dashed=1;html=1;rounded=0;" edge="1" parent="1">
          <mxGeometry width="50" height="50" relative="1" as="geometry">
            <mxPoint x="340" y="760" as="sourcePoint" />
            <mxPoint x="340" y="580" as="targetPoint" />
          </mxGeometry>
        </mxCell>
        <mxCell id="HU7i8c-x8OY4qaYbL8TO-84" value="" style="endArrow=classic;html=1;rounded=0;" edge="1" parent="1">
          <mxGeometry width="50" height="50" relative="1" as="geometry">
            <mxPoint x="350" y="410" as="sourcePoint" />
            <mxPoint x="450.53" y="410.27" as="targetPoint" />
          </mxGeometry>
        </mxCell>
        <mxCell id="HU7i8c-x8OY4qaYbL8TO-85" value="&lt;font style=&quot;font-size: 8px;&quot;&gt;Introducir dinero&lt;br&gt;&lt;/font&gt;" style="text;html=1;align=center;verticalAlign=middle;whiteSpace=wrap;rounded=0;" vertex="1" parent="1">
          <mxGeometry x="350" y="400" width="90" height="30" as="geometry" />
        </mxCell>
        <mxCell id="HU7i8c-x8OY4qaYbL8TO-86" value="" style="endArrow=classic;html=1;rounded=0;" edge="1" parent="1">
          <mxGeometry width="50" height="50" relative="1" as="geometry">
            <mxPoint x="350" y="440" as="sourcePoint" />
            <mxPoint x="450.53" y="440.27" as="targetPoint" />
          </mxGeometry>
        </mxCell>
        <mxCell id="HU7i8c-x8OY4qaYbL8TO-87" value="&lt;font style=&quot;font-size: 8px;&quot;&gt;Actualizar cuenta&lt;br&gt;&lt;/font&gt;" style="text;html=1;align=center;verticalAlign=middle;whiteSpace=wrap;rounded=0;" vertex="1" parent="1">
          <mxGeometry x="350" y="431.25" width="90" height="30" as="geometry" />
        </mxCell>
        <mxCell id="HU7i8c-x8OY4qaYbL8TO-88" value="" style="rounded=1;whiteSpace=wrap;html=1;" vertex="1" parent="1">
          <mxGeometry x="450" y="407.5" width="20" height="22.5" as="geometry" />
        </mxCell>
        <mxCell id="HU7i8c-x8OY4qaYbL8TO-89" value="" style="rounded=1;whiteSpace=wrap;html=1;" vertex="1" parent="1">
          <mxGeometry x="450" y="438.75" width="20" height="41.25" as="geometry" />
        </mxCell>
        <mxCell id="HU7i8c-x8OY4qaYbL8TO-90" value="" style="rounded=1;whiteSpace=wrap;html=1;" vertex="1" parent="1">
          <mxGeometry x="450" y="525" width="20" height="41.25" as="geometry" />
        </mxCell>
        <mxCell id="HU7i8c-x8OY4qaYbL8TO-91" value="" style="endArrow=classic;html=1;rounded=0;" edge="1" parent="1">
          <mxGeometry width="50" height="50" relative="1" as="geometry">
            <mxPoint x="350" y="525" as="sourcePoint" />
            <mxPoint x="450.53" y="525.27" as="targetPoint" />
          </mxGeometry>
        </mxCell>
        <mxCell id="HU7i8c-x8OY4qaYbL8TO-92" value="&lt;font style=&quot;font-size: 7px;&quot;&gt;Sacar dinero (si se dispone de la cantidad suficiente)&lt;br&gt;&lt;/font&gt;" style="text;html=1;align=center;verticalAlign=middle;whiteSpace=wrap;rounded=0;" vertex="1" parent="1">
          <mxGeometry x="350" y="525" width="90" height="30" as="geometry" />
        </mxCell>
        <mxCell id="HU7i8c-x8OY4qaYbL8TO-93" value="" style="endArrow=none;dashed=1;html=1;rounded=0;entryX=0.5;entryY=1;entryDx=0;entryDy=0;" edge="1" parent="1" target="HU7i8c-x8OY4qaYbL8TO-31">
          <mxGeometry width="50" height="50" relative="1" as="geometry">
            <mxPoint x="459.92" y="407.5" as="sourcePoint" />
            <mxPoint x="459.52000000000004" y="227.5" as="targetPoint" />
          </mxGeometry>
        </mxCell>
        <mxCell id="HU7i8c-x8OY4qaYbL8TO-94" value="" style="endArrow=none;dashed=1;html=1;rounded=0;entryX=0.5;entryY=1;entryDx=0;entryDy=0;exitX=0.5;exitY=0;exitDx=0;exitDy=0;" edge="1" parent="1" source="HU7i8c-x8OY4qaYbL8TO-90">
          <mxGeometry width="50" height="50" relative="1" as="geometry">
            <mxPoint x="460" y="520" as="sourcePoint" />
            <mxPoint x="459.8" y="478.13" as="targetPoint" />
          </mxGeometry>
        </mxCell>
        <mxCell id="HU7i8c-x8OY4qaYbL8TO-95" value="" style="endArrow=none;dashed=1;html=1;rounded=0;entryX=0.5;entryY=1;entryDx=0;entryDy=0;" edge="1" parent="1" source="HU7i8c-x8OY4qaYbL8TO-96">
          <mxGeometry width="50" height="50" relative="1" as="geometry">
            <mxPoint x="460" y="760" as="sourcePoint" />
            <mxPoint x="459.87" y="566.25" as="targetPoint" />
          </mxGeometry>
        </mxCell>
        <mxCell id="HU7i8c-x8OY4qaYbL8TO-97" value="" style="endArrow=none;dashed=1;html=1;rounded=0;entryX=0.5;entryY=1;entryDx=0;entryDy=0;" edge="1" parent="1" target="HU7i8c-x8OY4qaYbL8TO-96">
          <mxGeometry width="50" height="50" relative="1" as="geometry">
            <mxPoint x="460" y="760" as="sourcePoint" />
            <mxPoint x="459.87" y="566.25" as="targetPoint" />
          </mxGeometry>
        </mxCell>
        <mxCell id="HU7i8c-x8OY4qaYbL8TO-96" value="" style="rounded=1;whiteSpace=wrap;html=1;" vertex="1" parent="1">
          <mxGeometry x="450" y="600" width="20" height="30" as="geometry" />
        </mxCell>
        <mxCell id="HU7i8c-x8OY4qaYbL8TO-98" value="" style="endArrow=none;dashed=1;html=1;dashPattern=1 3;strokeWidth=2;rounded=0;startArrow=classic;startFill=1;exitX=1.06;exitY=-0.09;exitDx=0;exitDy=0;exitPerimeter=0;" edge="1" parent="1">
          <mxGeometry width="50" height="50" relative="1" as="geometry">
            <mxPoint x="230" y="630" as="sourcePoint" />
            <mxPoint x="449" y="632" as="targetPoint" />
          </mxGeometry>
        </mxCell>
        <mxCell id="HU7i8c-x8OY4qaYbL8TO-99" value="&lt;font style=&quot;font-size: 9px;&quot;&gt;Mostrar aviso si no se dispone de la cantidad suficiente&lt;/font&gt;" style="text;html=1;align=center;verticalAlign=middle;whiteSpace=wrap;rounded=0;" vertex="1" parent="1">
          <mxGeometry x="240" y="630" width="210" height="30" as="geometry" />
        </mxCell>
        <mxCell id="HU7i8c-x8OY4qaYbL8TO-100" value="" style="endArrow=none;dashed=1;html=1;rounded=0;exitX=0.5;exitY=0;exitDx=0;exitDy=0;" edge="1" parent="1" source="HU7i8c-x8OY4qaYbL8TO-32">
          <mxGeometry width="50" height="50" relative="1" as="geometry">
            <mxPoint x="339.91" y="218" as="sourcePoint" />
            <mxPoint x="339.91" y="190" as="targetPoint" />
          </mxGeometry>
        </mxCell>
        <mxCell id="HU7i8c-x8OY4qaYbL8TO-101" value="" style="endArrow=none;dashed=1;html=1;rounded=0;entryX=0.5;entryY=1;entryDx=0;entryDy=0;" edge="1" parent="1">
          <mxGeometry width="50" height="50" relative="1" as="geometry">
            <mxPoint x="459.89" y="438.75" as="sourcePoint" />
            <mxPoint x="459.89" y="428.75" as="targetPoint" />
          </mxGeometry>
        </mxCell>
      </root>
    </mxGraphModel>
  </diagram>
</mxfile>
